<?xml version="1.0" encoding="UTF-8" standalone="no"?>
<svg
   viewBox="0 0 210 297"
   version="1.1"
   id="svg2"
   xmlns="http://www.w3.org/2000/svg"
   xmlns:svg="http://www.w3.org/2000/svg">
  <defs
     id="defs6">
    <rect
       x="61.52862"
       y="74.149959"
       width="76.828484"
       height="40.99918"
       id="rect3580" />
  </defs>
  <path
     id="rect30"
     style="fill:#000000"
     d="M 49.841797 24.923828 C 36.168689 24.923828 25.162109 35.930408 25.162109 49.603516 L 25.162109 150.00195 C 25.162109 163.67506 36.168689 174.68164 49.841797 174.68164 L 150.21875 174.68164 C 163.89186 174.68164 174.90039 163.67506 174.90039 150.00195 L 174.90039 49.603516 C 174.90039 35.930408 163.89186 24.923828 150.21875 24.923828 L 49.841797 24.923828 z M 50.716797 36.046875 L 149.34375 36.046875 C 157.96244 36.046875 164.90039 42.986778 164.90039 51.605469 L 164.90039 148 C 164.90039 156.61869 157.96244 163.55664 149.34375 163.55664 L 50.716797 163.55664 C 42.098106 163.55664 35.160156 156.61869 35.160156 148 L 35.160156 51.605469 C 35.160156 42.986778 42.098106 36.046875 50.716797 36.046875 z " />
  <text
     xml:space="preserve"
     style="font-style:normal;font-weight:normal;font-size:40px;line-height:1.25;font-family:sans-serif;fill:#000000;fill-opacity:1;stroke:none"
     x="62.248047"
     y="114.38281"
     id="text15838"><tspan
       id="tspan15836"
       x="62.248047"
       y="114.38281">TXT</tspan></text>
</svg>
